<svg xmlns="http://www.w3.org/2000/svg">
  <defs>
    <symbol id="email" viewBox="0 0 512 512">
      <path d="M64 112c-8.8 0-16 7.2-16 16v22.1L220.5 291.7c20.7 17 50.4 17 71.1 0L464 150.1V128c0-8.8-7.2-16-16-16H64zM48 212.2V384c0 8.8 7.2 16 16 16H448c8.8 0 16-7.2 16-16V212.2L322 328.8c-38.4 31.5-93.7 31.5-132 0L48 212.2zM0 128C0 92.7 28.7 64 64 64H448c35.3 0 64 28.7 64 64V384c0 35.3-28.7 64-64 64H64c-35.3 0-64-28.7-64-64V128z"/>
    </symbol>

    <symbol 
      id="github" 
      viewBox="0 0 29 28"
      fill="currentColor"
    >
      <path
        d="M25.75 0H3.75C2.09375 0 0.75 1.34375 0.75 3V25C0.75 26.6562 2.09375 28 3.75 28H25.75C27.4062 28 28.75 26.6562 28.75 25V3C28.75 1.34375 27.4062 0 25.75 0ZM18.0812 23.9813C17.5562 24.075 17.3625 23.75 17.3625 23.4813C17.3625 23.1438 17.375 21.4187 17.375 20.025C17.375 19.05 17.05 18.4313 16.6687 18.1063C18.9813 17.85 21.4188 17.5312 21.4188 13.5375C21.4188 12.4 21.0125 11.8313 20.35 11.1C20.4563 10.8313 20.8125 9.725 20.2437 8.2875C19.375 8.01875 17.3875 9.40625 17.3875 9.40625C16.5625 9.175 15.6688 9.05625 14.7875 9.05625C13.9062 9.05625 13.0125 9.175 12.1875 9.40625C12.1875 9.40625 10.2 8.01875 9.33125 8.2875C8.7625 9.71875 9.1125 10.825 9.225 11.1C8.5625 11.8313 8.25 12.4 8.25 13.5375C8.25 17.5125 10.5813 17.85 12.8938 18.1063C12.5938 18.375 12.325 18.8375 12.2312 19.5C11.6375 19.7687 10.1187 20.2313 9.2125 18.6313C8.64375 17.6438 7.61875 17.5625 7.61875 17.5625C6.60625 17.55 7.55 18.2 7.55 18.2C8.225 18.5125 8.7 19.7125 8.7 19.7125C9.30625 21.5688 12.2063 20.9438 12.2063 20.9438C12.2063 21.8125 12.2188 23.225 12.2188 23.4813C12.2188 23.75 12.0312 24.075 11.5 23.9813C7.375 22.6 4.4875 18.675 4.4875 14.0875C4.4875 8.35 8.875 3.99375 14.6125 3.99375C20.35 3.99375 25 8.35 25 14.0875C25.0063 18.675 22.2062 22.6063 18.0812 23.9813ZM11.95 20.1625C11.8313 20.1875 11.7188 20.1375 11.7063 20.0562C11.6938 19.9625 11.775 19.8813 11.8938 19.8563C12.0125 19.8438 12.125 19.8938 12.1375 19.975C12.1562 20.0562 12.075 20.1375 11.95 20.1625ZM11.3562 20.1063C11.3562 20.1875 11.2625 20.2563 11.1375 20.2563C11 20.2688 10.9062 20.2 10.9062 20.1063C10.9062 20.025 11 19.9562 11.125 19.9562C11.2437 19.9437 11.3562 20.0125 11.3562 20.1063ZM10.5 20.0375C10.475 20.1187 10.35 20.1562 10.2437 20.1187C10.125 20.0938 10.0438 20 10.0688 19.9188C10.0938 19.8375 10.2188 19.8 10.325 19.825C10.45 19.8625 10.5312 19.9563 10.5 20.0375ZM9.73125 19.7C9.675 19.7688 9.55625 19.7563 9.4625 19.6625C9.36875 19.5813 9.34375 19.4625 9.40625 19.4062C9.4625 19.3375 9.58125 19.35 9.675 19.4438C9.75625 19.525 9.7875 19.65 9.73125 19.7ZM9.1625 19.1313C9.10625 19.1688 9 19.1313 8.93125 19.0375C8.8625 18.9438 8.8625 18.8375 8.93125 18.7938C9 18.7375 9.10625 18.7812 9.1625 18.875C9.23125 18.9688 9.23125 19.0813 9.1625 19.1313ZM8.75625 18.525C8.7 18.5812 8.60625 18.55 8.5375 18.4875C8.46875 18.4062 8.45625 18.3125 8.5125 18.2687C8.56875 18.2125 8.6625 18.2437 8.73125 18.3062C8.8 18.3875 8.8125 18.4812 8.75625 18.525ZM8.3375 18.0625C8.3125 18.1187 8.23125 18.1313 8.1625 18.0875C8.08125 18.05 8.04375 17.9812 8.06875 17.925C8.09375 17.8875 8.1625 17.8687 8.24375 17.9C8.325 17.9438 8.3625 18.0125 8.3375 18.0625Z"
        fill="currentColor">
      </path>
    </symbol>

    <symbol
      id="linkedin"
      viewBox="0 0 29 28"
      fill="currentColor"
    >
      <path
        d="M26.625 0H2.61875C1.51875 0 0.625 0.90625 0.625 2.01875V25.9813C0.625 27.0938 1.51875 28 2.61875 28H26.625C27.725 28 28.625 27.0938 28.625 25.9813V2.01875C28.625 0.90625 27.725 0 26.625 0ZM9.0875 24H4.9375V10.6375H9.09375V24H9.0875ZM7.0125 8.8125C5.68125 8.8125 4.60625 7.73125 4.60625 6.40625C4.60625 5.08125 5.68125 4 7.0125 4C8.3375 4 9.41875 5.08125 9.41875 6.40625C9.41875 7.7375 8.34375 8.8125 7.0125 8.8125ZM24.6437 24H20.4937V17.5C20.4937 15.95 20.4625 13.9563 18.3375 13.9563C16.175 13.9563 15.8438 15.6438 15.8438 17.3875V24H11.6938V10.6375H15.675V12.4625H15.7312C16.2875 11.4125 17.6438 10.3062 19.6625 10.3062C23.8625 10.3062 24.6437 13.075 24.6437 16.675V24Z"
        fill="currentColor"></path>
    </symbol>

    <symbol id="twitter-x" viewBox="0 0 512 512">
      <path d="M389.2 48h70.6L305.6 224.2 487 464H345L233.7 318.6 106.5 464H35.8L200.7 275.5 26.8 48H172.4L272.9 180.9 389.2 48zM364.4 421.8h39.1L151.1 88h-42L364.4 421.8z"/>
    </symbol>
</defs>
</svg>